<svg width="64px" height="64px" viewBox="0 0 24 24" xmlns="http://www.w3.org/2000/svg" fill="none">
    <g id="SVGRepo_bgCarrier" stroke-width="0"></g>
    <g id="SVGRepo_tracerCarrier" stroke-linecap="round" stroke-linejoin="round"></g>
    <g id="SVGRepo_iconCarrier">
        <path fill="#474747" fill-rule="evenodd"
              d="M4 5a3 3 0 0 1 3-3h10a3 3 0 0 1 3 3v15.138a1.5 1.5 0 0 1-2.244 1.303l-5.26-3.006a1 1 0 0 0-.992 0l-5.26 3.006A1.5 1.5 0 0 1 4 20.138V5zm7 2a1 1 0 1 1 2 0v2h2a1 1 0 1 1 0 2h-2v2a1 1 0 1 1-2 0v-2H9a1 1 0 1 1 0-2h2V7z"
              clip-rule="evenodd"></path>
    </g>
</svg>